#!OML:ASF F:\VICON\USERDATA\INSTALL\rory3\rory3.ASF
:FULLY-SPECIFIED
:DEGREES
28
root 0.802932304885376 18.086792807783713 -8.91129336882994 -3.0226940442577352 -4.574166641582035 -1.926185748586533
lfemur -16.398327411036732 -1.7199699400982131 -20.933339623947322
ltibia 26.78123693883085
lfoot -6.036978205902632 -1.1627213513525234
ltoes -3.613340450303235
rfemur 0.3432593597608111 3.8526151284585435 25.065505178827422
rtibia 56.056589189647624
rfoot 19.981614465705338 1.4016566982340928
rtoes 14.578011373233567
lowerback 1.0 2.2176175438178034 3.161183013841061
upperback 0.0062753234580954775 3.1850960627734213 0.7781718660452133
thorax -5.343847608386064 1.5790190696689956 -1.285423410695017
lowerneck -15.460175363428156 -3.4161546822947524 -1.3888484387849174
upperneck 24.128878377888785 -4.535561016322687 0.24732445109195345
head 10.289967817292878 -2.192789551401783 -0.28619122886364945
lclavicle 3.1971562930655763e-16 -3.47986827232999e-15
lhumerus -37.327830316019885 11.69565177982844 78.32844641214055
lradius 19.421628114642584
lwrist 0.6759955797660804
lhand -25.153565578006663 21.465604561817734
lfingers nan
lthumb 1.361335584635948 51.51177953665286
rclavicle 3.0875147002421825e-16 -3.718144700012928e-15
rhumerus -25.109109503254505 -13.735411540204643 -80.82456412051471
rradius 31.421133608667684
rwrist 0.7888032646035645
rhand -19.32958501440199 1.0
rfingers nan
rthumb 6.935432632268899 -7.3534374144315295
29
root 0.8372297351819342 18.083059471926973 -8.32668231677282 -3.4878715175580375 -4.983505221014074 -0.6015426270687072
lfemur -13.449038218413055 -1.9633332148754437 -23.474885151636833
ltibia 27.376335402337265
lfoot -8.208941841421236 0.285131590346277
ltoes -2.958820013719046
rfemur -6.752832992419903 3.3843174740324424 22.403190873557037
rtibia 66.59419522432978
rfoot 21.999079531980502 -0.9486717631222312
rtoes 18.881920606399014
lowerback 1.0 2.1666185371798607 1.151709967597483
upperback 0.3339495532999108 3.018243313383965 0.41810476058562784
thorax -5.308776024135247 1.4675109831267792 -0.4989973426065415
lowerneck -15.48807358077698 -3.2396115264197527 -1.4396628767277808
upperneck 23.569975490379104 -4.2053558133158635 0.0349624587412366
head 10.07298130269969 -2.0727098644538233 -0.3157102557195263
lclavicle -4.833845990670302e-15 -2.6025934006348665e-14
lhumerus -35.97550812293005 10.33741510149123 79.16035374952442
lradius 19.957354193428586
lwrist 2.2263068389797542
lhand -25.800664404322934 19.37638510430538
lfingers nan
lthumb 0.6895088476554923 49.2366841968727
rclavicle -3.618869946658686e-15 -2.4868750624559534e-14
rhumerus -25.42783890578935 -14.400943106589686 -81.23071051287673
rradius 29.968845873538164
rwrist 1.7338880424682985
rhand -19.935079841160107 1.0
rfingers nan
rthumb 6.446167963440088 -6.793724020707918
30
root 0.8539219558666795 18.101478787149713 -7.678505239419495 -3.874217356700128 -4.949958018961276 0.2464446312246691
lfemur -10.060592044099241 -1.1099129042626668 -24.903847188312056
ltibia 26.836807195819382
lfoot -9.280637297763626 1.1118349240321028
ltoes -1.1219516363158366
rfemur -12.545821072488847 2.4539112534473144 21.205619280350252
rtibia 73.43378281394251
rfoot 14.520239923842958 -2.6729509503097066
rtoes 15.930553404392327
lowerback 1.0 1.9913904863517755 0.10606376924571581
upperback 0.5760144802227609 2.822360317489306 0.29201456725864516
thorax -5.119362752394981 1.2860357386214243 -0.07502996187295752
lowerneck -15.467931724774893 -3.027465928651236 -1.49048198390516
upperneck 23.452329948737127 -3.85613525920227 -0.04349864700403028
head 10.04088166053475 -1.9154938328192768 -0.27844357073662845
lclavicle 1.3439544942085417e-14 -3.81321552407146e-15
lhumerus -34.27907938797698 8.040292526686136 80.02444324043599
lradius 20.73348783759569
lwrist 2.4598031148473387
lhand -26.53643763062226 22.794453048674377
lfingers nan
lthumb -0.0050915593981292195 52.75135155547841
rclavicle 1.4787200894240607e-14 -2.86898532439654e-15
rhumerus -25.261862151805882 -16.004288232585246 -81.30148979044691
rradius 27.67548175019571
rwrist 3.7528921928519208
rhand -19.661573650736514 1.0
rfingers nan
rthumb 6.706554705526457 -7.015130971752744
31
root 0.8574211307396474 18.102764197721545 -7.03079783112357 -4.072615668853217 -4.355957217210653 0.7936831693263133
lfemur -7.0002089540459895 -0.8656130437175571 -25.384261582759358
ltibia 25.81568291982792
lfoot -10.716969253814538 1.0153370731214957
ltoes -1.1553108285784868
rfemur -17.527757115889898 1.0090866138658234 21.105940847060804
rtibia 76.38543467364306
rfoot 7.148068635306817 -4.186527305396658
rtoes 14.914452860805804
lowerback 1.0 1.3836463139792603 -0.26174545818550565
upperback 0.45520149830365053 2.0632930442154382 0.300608151299286
thorax -5.5592340361421675 0.9036698156014394 0.14451389436367723
lowerneck -15.362861027979285 -2.91079134508605 -1.5317301598992281
upperneck 23.96156526218214 -3.6269496350077333 -0.282391074414754
head 10.223531468622578 -1.8313254986536938 -0.31681983889358506
lclavicle 1.6123760303434112e-15 6.960277975544121e-15
lhumerus -33.622842512682794 6.803010097741019 79.80334709464573
lradius 21.75910994688333
lwrist 2.897468332363568
lhand -26.420820156348313 21.189672830679214
lfingers nan
lthumb -0.2615947998264063 50.297686109047284
rclavicle 2.4164522980953096e-15 8.090506957702544e-15
rhumerus -26.25153484598198 -17.731001458895378 -81.03651792783731
rradius 26.302947768362714
rwrist 5.6994838488913535
rhand -18.93066314511512 1.0
rfingers nan
rthumb 7.349773091622884 -7.493880374294617
32
root 0.8570093942749768 18.100900943136033 -6.364968496713667 -4.1587871847436135 -3.4062662447197667 1.189299354056829
lfemur -5.075023935576304 -0.3721027452554302 -26.200822637097687
ltibia 26.845868648768878
lfoot -12.035675096026285 0.7273390454082507
ltoes -2.8934501934106476
rfemur -22.339802284853853 -0.511563310696658 20.624612924608726
rtibia 76.1016537150627
rfoot 1.5845757699425391 -4.613857405366465
rtoes 11.308863804519655
lowerback 1.0 0.7004475134451394 -1.0686201234622896
upperback 0.5075097410501765 0.9058256590467573 0.345416033457858
thorax -5.478269995280237 0.3769782356736534 0.8355494565791308
lowerneck -15.52059884945101 -2.88914519151782 -1.7531470775891658
upperneck 24.107797846970435 -3.5416783175022273 -0.3444882213261129
head 10.305269729289623 -1.8226855272216838 -0.2951624042084001
lclavicle -1.6161688520396696e-16 1.3477240388742309e-14
lhumerus -31.732363616863285 5.18546131117116 80.37061433484739
lradius 22.50422181522608
lwrist 3.447173044141858
lhand -27.480734682621907 23.546231592898774
lfingers nan
lthumb -0.7165008760558275 53.71281546167384
rclavicle -3.3709858117690455e-16 1.2968395941804575e-14
rhumerus -27.08378243341187 -19.83506430260024 -80.54423230131842
rradius 25.437991894806164
rwrist 6.390449081985112
rhand -18.634451920214882 1.0
rfingers nan
rthumb 7.720129777082457 -7.88682880661866
33
root 0.8508784560261637 18.08558077779546 -5.588873701076775 -4.0498523698740145 -2.3957057510468447 1.576383568370187
lfemur -3.0881208809519736 -0.23553058587608056 -26.96994262346606
ltibia 27.434351757529072
lfoot -12.73997590873147 1.3864078815876573
ltoes -2.835193450811977
rfemur -26.267950281635848 -0.9678980162934105 20.266214055156297
rtibia 72.40003411244595
rfoot -3.0754819341043276 -4.221407986149107
rtoes 10.856726472662356
lowerback 1.0 0.1893201452258192 -1.8184651468394388
upperback 0.6034139439212487 0.1727721567883907 0.5324242283582761
thorax -5.572511750124898 0.0414321934369154 1.635288883332413
lowerneck -15.408084155489057 -2.8414723924085497 -1.9028053139847005
upperneck 23.64118226606728 -3.321152138610123 -0.6548888744780036
head 10.089001406473873 -1.7798519188912343 -0.3463682704370608
lclavicle -5.2201166223724715e-15 -9.359736876743714e-15
lhumerus -29.85640199473369 3.9862865215585677 80.72064351164927
lradius 23.3330363995119
lwrist 4.283726594972149
lhand -25.465824531088064 26.871862345090594
lfingers nan
lthumb 0.5905771612694071 55.731103862410905
rclavicle -4.6782188400952415e-15 -8.813604955371936e-15
rhumerus -28.30117346125663 -20.501452002908916 -79.71760744202182
rradius 25.148127556070826
rwrist 5.418980867924209
rhand -18.173516930610827 1.0
rfingers nan
rthumb 8.096399905198394 -6.212430153872825
